<?xml version="1.0" encoding="utf-8"?>
<!-- Generator: Adobe Adobe Illustrator 24.2.0, SVG Export Plug-In . SVG Version: 6.00 Build 0)  -->
<svg version="1.1" id="Layer_1" xmlns="http://www.w3.org/2000/svg" xmlns:xlink="http://www.w3.org/1999/xlink" x="0px" y="0px"
	 viewBox="0 0 171.56 278.35" style="enable-background:new 0 0 171.56 278.35;" xml:space="preserve">
<style type="text/css">
	.st0{fill:#22BBB1;}
</style>
<g>
	<g>
		<g>
			<path class="st0" d="M98.94,167.57h0.01V144.1L98.94,167.57z"/>
		</g>
		<g>
			<path class="st0" d="M28.96,124.79c0,12.07,7.68,19.31,19.96,19.31h14.29v23.47h-14.5C18.65,167.57,0,148.49,0,122.16
				C0,96.5,17.33,77.41,49.14,77.41h114.52v27.86H49.14C36.42,105.27,28.96,112.73,28.96,124.79z"/>
		</g>
		<g>
			<path class="st0" d="M171.56,190.17c0,26.76-16.24,46.73-49.58,46.73H2.42v-27.87h119.56c14.91,0,23.25-8.33,23.25-20.84
				c0-13.6-8.34-20.62-23.25-20.62h-13.63V144.1h13.63C154.22,144.1,171.56,159.24,171.56,190.17z"/>
		</g>
	</g>
	<rect x="72.61" y="209.01" class="st0" width="26.33" height="0.02"/>
	<rect x="72.61" y="246.3" class="st0" width="26.33" height="32.05"/>
	<polygon class="st0" points="98.95,114.58 98.95,144.1 98.94,167.57 98.94,199.61 72.61,199.61 72.61,114.58 	"/>
	<polygon class="st0" points="123.24,47.02 98.95,47.02 98.95,68 72.61,68 72.61,47.02 48.32,47.02 85.78,0 	"/>
</g>
</svg>
